<?xml version="1.0" encoding="UTF-8"?>
<svg width="1280px" height="512px" viewBox="0 0 1280 512" version="1.1" xmlns="http://www.w3.org/2000/svg" xmlns:xlink="http://www.w3.org/1999/xlink" style="background: #FFFFFF;">
    <!-- Generator: Sketch 46 (44423) - http://www.bohemiancoding.com/sketch -->
    <title>logo-type</title>
    <desc>Created with Sketch.</desc>
    <defs></defs>
    <g id="Page-1" stroke="none" stroke-width="1" fill="none" fill-rule="evenodd">
        <g id="logo-type">
            <g id="Group" transform="translate(836.000000, 128.000000)">
                <rect id="bound" stroke-opacity="0.01" stroke="#979797" stroke-width="0.5" x="0.25" y="0.25" width="255.5" height="255.5"></rect>
                <path d="M205.578414,139.805394 C222.622763,140.51572 236.222801,154.55823 236.222801,171.777199 C236.222801,189.450311 221.895913,203.777199 204.222801,203.777199 C186.549689,203.777199 172.222801,189.450311 172.222801,171.777199 C172.222801,159.386451 179.265204,148.640544 189.56574,143.323749 C179.091468,122.255299 157.347905,107.777199 132.222801,107.777199 C112.867399,107.777199 95.5187933,116.369317 83.7830707,129.947465 C78.9125508,127.198282 73.5138695,125.275159 67.7771993,124.368268 C82.3429788,104.601316 105.785273,91.7771993 132.222801,91.7771993 C165.038816,91.7771993 193.239949,111.53586 205.578414,139.805394 L205.578414,139.805394 Z M204.222801,187.777199 C213.059357,187.777199 220.222801,180.613755 220.222801,171.777199 C220.222801,162.940643 213.059357,155.777199 204.222801,155.777199 C195.386245,155.777199 188.222801,162.940643 188.222801,171.777199 C188.222801,180.613755 195.386245,187.777199 204.222801,187.777199 Z" id="Combined-Shape" fill="#1D566E" transform="translate(152.000000, 147.777199) rotate(90.000000) translate(-152.000000, -147.777199) "></path>
                <path d="M50.4215859,116.194606 C33.3772367,115.48428 19.7771993,101.44177 19.7771993,84.2228007 C19.7771993,66.5496887 34.1040873,52.2228007 51.7771993,52.2228007 C69.4503113,52.2228007 83.7771993,66.5496887 83.7771993,84.2228007 C83.7771993,96.613549 76.7347963,107.359456 66.4342602,112.676251 C76.9085316,133.744701 98.6520947,148.222801 123.777199,148.222801 C143.132601,148.222801 160.481207,139.630683 172.216929,126.052535 C177.087449,128.801718 182.48613,130.724841 188.222801,131.631732 C173.657021,151.398684 150.214727,164.222801 123.777199,164.222801 C90.9611838,164.222801 62.7600507,144.46414 50.4215859,116.194606 L50.4215859,116.194606 Z M51.7771993,100.222801 C60.6137553,100.222801 67.7771993,93.0593567 67.7771993,84.2228007 C67.7771993,75.3862447 60.6137553,68.2228007 51.7771993,68.2228007 C42.9406433,68.2228007 35.7771993,75.3862447 35.7771993,84.2228007 C35.7771993,93.0593567 42.9406433,100.222801 51.7771993,100.222801 Z" id="Combined-Shape" fill="#45EBA5" transform="translate(104.000000, 108.222801) rotate(90.000000) translate(-104.000000, -108.222801) "></path>
                <path d="M128,144 C136.836556,144 144,136.836556 144,128 C144,119.163444 136.836556,112 128,112 C119.163444,112 112,119.163444 112,128 C112,136.836556 119.163444,144 128,144 Z M128,160 C110.326888,160 96,145.673112 96,128 C96,110.326888 110.326888,96 128,96 C145.673112,96 160,110.326888 160,128 C160,145.673112 145.673112,160 128,160 Z" id="Oval" fill="#21ABA5" fill-rule="nonzero" transform="translate(128.000000, 128.000000) rotate(90.000000) translate(-128.000000, -128.000000) "></path>
            </g>
            <g id="Group-2" transform="translate(188.000000, 195.000000)">
                <rect id="Rectangle" fill="#45EBA5" x="0" y="81" width="648" height="16"></rect>
                <path d="M600,57 L600,81 L648,81 L648,97 L584,97 L584,33 L600,33 L600,41 L632,41 L632,57 L600,57 Z M584,1 L648,1 L648,17 L584,17 L584,1 Z M551.670225,97.3199151 L535.670225,97.3199151 L519,2.77837084 L534.756924,0 L543.670225,50.549842 L552.583526,3.99680289e-15 L568.34045,2.77837084 L551.670225,97.3199151 Z M488,1 L504,1 L504,97 L488,97 L488,1 Z M456,17 L456,97 L440,97 L440,17 L416,17 L416,1 L480,1 L480,17 L456,17 Z M344,33 C344,15.326888 358.326888,1 376,1 C393.673112,1 408,15.326888 408,33 L392,33 C392,24.163444 384.836556,17 376,17 C367.163444,17 360,24.163444 360,33 L360,65 C360,73.836556 367.163444,81 376,81 C384.836556,81 392,73.836556 392,65 L408,65 C408,82.673112 393.673112,97 376,97 C358.326888,97 344,82.673112 344,65 L344,33 Z M288,41 L312,41 L312,57 L288,57 L288,97 L272,97 L272,33 C272,15.326888 286.326888,1 304,1 C321.673112,1 336,15.326888 336,33 L336,97 L320,97 L320,33 C320,24.163444 312.836556,17 304,17 C295.163444,17 288,24.163444 288,33 L288,41 Z M216,57 L216,81 L264,81 L264,97 L200,97 L200,33 L216,33 L216,41 L248,41 L248,57 L216,57 Z M200,1 L264,1 L264,17 L200,17 L200,1 Z M128,33 L144,33 L144,97 L128,97 L128,33 Z M176.002665,60.7174282 L205.856406,112.425626 L192,120.425626 L160,65 L160,49 C168.836556,49 176,41.836556 176,33 C176,24.163444 168.836556,17 160,17 L128,17 L128,1 L160,1 C177.673112,1 192,15.326888 192,33 C192,44.8434178 185.566017,55.1840983 176.002665,60.7174282 L176.002665,60.7174282 Z" id="Combined-Shape" fill="#163A5F"></path>
                <path d="M0,57 L104,57 L104,97 L0,97 L0,57 Z M68,77 L68,93 L76,93 L76,77 C76,72.581722 79.581722,69 84,69 C88.418278,69 92,72.581722 92,77 L92,93 L100,93 L100,77 C100,68.163444 92.836556,61 84,61 C75.163444,61 68,68.163444 68,77 Z M56,61 L56,93 L64,93 L64,61 L56,61 Z M30.5,62.1139603 C33.047042,63.8493421 35.1256085,66.2213394 36.5067736,69.0010265 C40.8653403,69.0701826 44.3773029,72.6249599 44.3773029,77 L44.3773029,93 L52.3773029,93 L52.3773029,77 C52.3773029,68.163444 45.2138589,61 36.3773029,61 C34.3022419,61 32.3194424,61.3950186 30.5,62.1139603 L30.5,62.1139603 Z M4,77 L4,93 L12,93 L12,77 C12,72.581722 15.581722,69 20,69 C24.418278,69 28,72.581722 28,77 L28,93 L36,93 L36,77 C36,68.163444 28.836556,61 20,61 C11.163444,61 4,68.163444 4,77 Z" id="Combined-Shape" fill="#163A5F"></path>
            </g>
        </g>
    </g>
</svg>