<?xml version="1.0" encoding="UTF-8"?>
<svg width="1280px" height="512px" viewBox="0 0 1280 512" version="1.1" xmlns="http://www.w3.org/2000/svg" xmlns:xlink="http://www.w3.org/1999/xlink" style="background: #FFFFFF;">
    <!-- Generator: Sketch 46 (44423) - http://www.bohemiancoding.com/sketch -->
    <title>logo-type</title>
    <desc>Created with Sketch.</desc>
    <defs></defs>
    <g id="Page-1" stroke="none" stroke-width="1" fill="none" fill-rule="evenodd">
        <g id="logo-type">
            <g id="Group" transform="translate(768.000000, 1.000000)">
                <rect id="bound" stroke-opacity="0.01" stroke="#979797" stroke-width="0.001" x="0.0005" y="0.0005" width="511.999" height="511.999"></rect>
                <path d="M411.156828,279.610789 C445.245527,281.03144 472.445601,309.11646 472.445601,343.554399 C472.445601,378.900623 443.791825,407.554399 408.445601,407.554399 C373.099377,407.554399 344.445601,378.900623 344.445601,343.554399 C344.445601,318.772902 358.530407,297.281088 379.13148,286.647497 C358.182937,244.510598 314.695811,215.554399 264.445601,215.554399 C225.734797,215.554399 191.037587,232.738633 167.566141,259.89493 C157.825102,254.396565 147.027739,250.550318 135.554399,248.736536 C164.685958,209.202633 211.570546,183.554399 264.445601,183.554399 C330.077632,183.554399 386.479899,223.071719 411.156828,279.610789 L411.156828,279.610789 Z M408.445601,375.554399 C426.118713,375.554399 440.445601,361.227511 440.445601,343.554399 C440.445601,325.881287 426.118713,311.554399 408.445601,311.554399 C390.772489,311.554399 376.445601,325.881287 376.445601,343.554399 C376.445601,361.227511 390.772489,375.554399 408.445601,375.554399 Z" id="Combined-Shape" fill="#375A7F" transform="translate(304.000000, 295.554399) rotate(90.000000) translate(-304.000000, -295.554399) "></path>
                <path d="M100.843172,232.389211 C66.7544734,230.96856 39.5543987,202.88354 39.5543987,168.445601 C39.5543987,133.099377 68.2081747,104.445601 103.554399,104.445601 C138.900623,104.445601 167.554399,133.099377 167.554399,168.445601 C167.554399,193.227098 153.469593,214.718912 132.86852,225.352503 C153.817063,267.489402 197.304189,296.445601 247.554399,296.445601 C286.265203,296.445601 320.962413,279.261367 344.433859,252.10507 C354.174898,257.603435 364.972261,261.449682 376.445601,263.263464 C347.314042,302.797367 300.429454,328.445601 247.554399,328.445601 C181.922368,328.445601 125.520101,288.928281 100.843172,232.389211 L100.843172,232.389211 Z M103.554399,200.445601 C121.227511,200.445601 135.554399,186.118713 135.554399,168.445601 C135.554399,150.772489 121.227511,136.445601 103.554399,136.445601 C85.8812867,136.445601 71.5543987,150.772489 71.5543987,168.445601 C71.5543987,186.118713 85.8812867,200.445601 103.554399,200.445601 Z" id="Combined-Shape" fill="#6A99CB" transform="translate(208.000000, 216.445601) rotate(90.000000) translate(-208.000000, -216.445601) "></path>
                <path d="M256,288 C273.673112,288 288,273.673112 288,256 C288,238.326888 273.673112,224 256,224 C238.326888,224 224,238.326888 224,256 C224,273.673112 238.326888,288 256,288 Z M256,320 C220.653776,320 192,291.346224 192,256 C192,220.653776 220.653776,192 256,192 C291.346224,192 320,220.653776 320,256 C320,291.346224 291.346224,320 256,320 Z" id="Oval" fill="#4D7CAE" fill-rule="nonzero" transform="translate(256.000000, 256.000000) rotate(90.000000) translate(-256.000000, -256.000000) "></path>
            </g>
            <g id="Group-2" transform="translate(120.000000, 197.000000)" fill="#424242">
                <path d="M600,57 L600,81 L648,81 L648,97 L584,97 L584,33 L600,33 L600,41 L632,41 L632,57 L600,57 Z M584,1 L648,1 L648,17 L584,17 L584,1 Z M551.670225,97.3199151 L535.670225,97.3199151 L519,2.77837084 L534.756924,0 L543.670225,50.549842 L552.583526,3.99680289e-15 L568.34045,2.77837084 L551.670225,97.3199151 Z M488,1 L504,1 L504,97 L488,97 L488,1 Z M456,17 L456,97 L440,97 L440,17 L416,17 L416,1 L480,1 L480,17 L456,17 Z M344,33 C344,15.326888 358.326888,1 376,1 C393.673112,1 408,15.326888 408,33 L392,33 C392,24.163444 384.836556,17 376,17 C367.163444,17 360,24.163444 360,33 L360,65 C360,73.836556 367.163444,81 376,81 C384.836556,81 392,73.836556 392,65 L408,65 C408,82.673112 393.673112,97 376,97 C358.326888,97 344,82.673112 344,65 L344,33 Z M288,41 L312,41 L312,57 L288,57 L288,97 L272,97 L272,33 C272,15.326888 286.326888,1 304,1 C321.673112,1 336,15.326888 336,33 L336,96 L320,97 L320,33 C320,24.163444 312.836556,17 304,17 C295.163444,17 288,24.163444 288,33 L288,41 Z M216,57 L216,81 L264,81 L264,97 L200,97 L200,33 L216,33 L216,41 L248,41 L248,57 L216,57 Z M200,1 L264,1 L264,17 L200,17 L200,1 Z M128,33 L144,33 L144,97 L128,97 L128,33 Z M176.002665,60.7174282 L205.856406,112.425626 L192,120.425626 L160,65 L160,49 C168.836556,49 176,41.836556 176,33 C176,24.163444 168.836556,17 160,17 L128,17 L128,1 L160,1 C177.673112,1 192,15.326888 192,33 C192,44.8434178 185.566017,55.1840983 176.002665,60.7174282 L176.002665,60.7174282 Z" id="Combined-Shape"></path>
                <path d="M0,57 L104,57 L104,97 L0,97 L0,57 Z M68,77 L68,93 L76,93 L76,77 C76,72.581722 79.581722,69 84,69 C88.418278,69 92,72.581722 92,77 L92,93 L100,93 L100,77 C100,68.163444 92.836556,61 84,61 C75.163444,61 68,68.163444 68,77 Z M56,61 L56,93 L64,93 L64,61 L56,61 Z M30.5,62.1139603 C33.047042,63.8493421 35.1256085,66.2213394 36.5067736,69.0010265 C40.8653403,69.0701826 44.3773029,72.6249599 44.3773029,77 L44.3773029,93 L52.3773029,93 L52.3773029,77 C52.3773029,68.163444 45.2138589,61 36.3773029,61 C34.3022419,61 32.3194424,61.3950186 30.5,62.1139603 L30.5,62.1139603 Z M4,77 L4,93 L12,93 L12,77 C12,72.581722 15.581722,69 20,69 C24.418278,69 28,72.581722 28,77 L28,93 L36,93 L36,77 C36,68.163444 28.836556,61 20,61 C11.163444,61 4,68.163444 4,77 Z" id="Combined-Shape"></path>
            </g>
        </g>
    </g>
</svg>